HIERARCHY
ROOT Hips
{
	OFFSET -3.958830 18.904000 13.208200
	CHANNELS 6 Xposition Yposition Zposition Zrotation Yrotation Xrotation 
	JOINT LHipJoint
	{
		OFFSET 0.000000 0.000000 0.000000
		CHANNELS 3 Zrotation Yrotation Xrotation
		JOINT LeftUpLeg
		{
			OFFSET 1.800000 -1.400000 0.085000
			CHANNELS 3 Zrotation Yrotation Xrotation
			JOINT LeftLeg
			{
				OFFSET 2.215000 -6.000000 0.000000
				CHANNELS 3 Zrotation Yrotation Xrotation
				JOINT LeftFoot
				{
					OFFSET 2.500000 -6.900000 0.000000
					CHANNELS 3 Zrotation Yrotation Xrotation
					JOINT LeftToeBase
					{
						OFFSET 0.200000 -0.500000 1.950000
						CHANNELS 3 Zrotation Yrotation Xrotation
						End Site
						{
							OFFSET 0.000000 0.000000 0.000000
						}
					}
				}
			}
		}
	}
	JOINT RHipJoint
	{
		OFFSET 0.000000 0.000000 0.000000
		CHANNELS 3 Zrotation Yrotation Xrotation
		JOINT RightUpLeg
		{
			OFFSET -1.800000 -1.400000 0.085000
			CHANNELS 3 Zrotation Yrotation Xrotation
			JOINT RightLeg
			{
				OFFSET -2.215000 -6.000000 0.000000
				CHANNELS 3 Zrotation Yrotation Xrotation
				JOINT RightFoot
				{
					OFFSET -2.500000 -6.900000 0.000000
					CHANNELS 3 Zrotation Yrotation Xrotation
					JOINT RightToeBase
					{
						OFFSET -0.200000 -0.500000 1.950000
						CHANNELS 3 Zrotation Yrotation Xrotation
						End Site
						{
							OFFSET 0.000000 0.000000 0.000000
						}
					}
				}
			}
		}
	}
	JOINT LowerBack
	{
		OFFSET 0.000000 0.000000 0.000000
		CHANNELS 3 Zrotation Yrotation Xrotation
		JOINT Spine
		{
			OFFSET -0.087000 1.940000 -0.288900
			CHANNELS 3 Zrotation Yrotation Xrotation
			JOINT Spine1
			{
				OFFSET 0.000000 1.950000 0.060000
				CHANNELS 3 Zrotation Yrotation Xrotation
				JOINT Neck
				{
					OFFSET 0.000000 0.000000 0.000000
					CHANNELS 3 Zrotation Yrotation Xrotation
					JOINT Neck1
					{
						OFFSET 0.000000 1.600000 0.340000
						CHANNELS 3 Zrotation Yrotation Xrotation
						JOINT Head
						{
							OFFSET 0.000000 1.667000 -0.240000
							CHANNELS 3 Zrotation Yrotation Xrotation
							End Site
							{
								OFFSET 0.000000 0.000000 0.000000
							}
						}
					}
				}
				JOINT LeftShoulder
				{
					OFFSET 0.000000 0.000000 0.000000
					CHANNELS 3 Zrotation Yrotation Xrotation
					JOINT LeftArm
					{
						OFFSET 2.700000 1.550000 -0.730000
						CHANNELS 3 Zrotation Yrotation Xrotation
						JOINT LeftForeArm
						{
							OFFSET 5.450000 0.000000 0.000000
							CHANNELS 3 Zrotation Yrotation Xrotation
							JOINT LeftHand
							{
								OFFSET 3.450000 0.000000 0.000000
								CHANNELS 3 Zrotation Yrotation Xrotation
								JOINT LeftHandIndex1
								{
									OFFSET 0.750000 0.000000 0.000000
									CHANNELS 3 Zrotation Yrotation Xrotation
									End Site
									{
										OFFSET 0.000000 0.000000 0.000000
									}
								}
							}
						}
					}
				}
				JOINT RightShoulder
				{
					OFFSET 0.000000 0.000000 0.000000
					CHANNELS 3 Zrotation Yrotation Xrotation
					JOINT RightArm
					{
						OFFSET -2.700000 1.550000 -0.730000
						CHANNELS 3 Zrotation Yrotation Xrotation
						JOINT RightForeArm
						{
							OFFSET -5.450000 0.000000 0.000000
							CHANNELS 3 Zrotation Yrotation Xrotation
							JOINT RightHand
							{
								OFFSET -3.450000 0.000000 0.000000
								CHANNELS 3 Zrotation Yrotation Xrotation
								JOINT RightHandIndex1
								{
									OFFSET -0.750000 0.000000 0.000000
									CHANNELS 3 Zrotation Yrotation Xrotation
									End Site
									{
										OFFSET 0.000000 0.000000 0.000000
									}
								}
							}
						}
					}
				}
			}
		}
	}
}
MOTION
Frames: 9
Frame Time: 0.016667
-0.141210 16.117480 -3.213910 8.163083 48.901683 -0.510471 -15.090570 11.867873 2.337239 20.485471 -3.154458 -15.622580 -8.810631 12.026978 34.505660 0.322273 7.329856 1.754197 0.463790 0.440880 0.205400 18.559404 -9.662337 4.925950 -37.979749 -1.721941 -33.471360 26.912588 -12.388199 19.873137 -0.650587 -6.550519 1.729556 0.256830 -0.176000 -0.000230 -5.567037 -0.007932 -9.136487 14.502198 -6.506523 29.056409 -20.293807 0.054344 10.748982 3.965229 -3.765044 -12.709498 -13.296471 -9.686338 44.087951 8.971940 -16.959300 -18.869090 -37.840652 -28.224081 6.578078 -26.433702 -31.260133 -1.292232 96.779629 -69.779797 -74.108138 -3.174074 0.860923 0.313310 -0.303260 0.207750 0.112810 28.826353 30.262439 12.399460 26.520913 12.718214 -7.517634 -14.606926 31.479848 -3.823156 2.227754 -1.381308 0.077480 0.183150 -0.124730 0.014240 
-0.177610 16.102650 -3.099180 7.183263 48.733001 -0.988228 -15.111263 11.899815 2.344198 22.007817 -2.861230 -15.243180 -8.777158 11.985967 33.512496 0.299453 7.289159 1.763886 0.458060 0.432070 0.204190 18.535355 -9.626832 4.902166 -37.067077 -1.422336 -33.780101 27.693245 -12.838526 20.635137 -0.673316 -6.633003 1.707652 0.255720 -0.166080 -0.000540 -5.492441 -0.096050 -9.146167 13.889046 -6.084516 28.389939 -19.925147 0.464875 11.084607 3.888768 -3.285458 -12.923627 -12.262110 -10.325964 43.138807 9.329970 -17.014410 -18.891190 -37.250471 -28.419965 6.679738 -26.984177 -32.077756 -0.329786 99.104248 -68.523929 -76.098270 -3.246249 1.030188 0.310990 -0.295880 0.200860 0.112690 28.382829 30.146799 12.708546 27.412314 11.619816 -6.695607 -13.320999 29.460347 -3.236580 2.243214 -1.378181 0.070490 0.187000 -0.122020 0.012370 
-0.257740 16.088790 -2.916870 5.210620 48.463289 -2.228926 -15.158571 11.985826 2.328978 24.268162 -2.540530 -14.697325 -7.938631 11.656226 32.324307 0.250467 7.193547 1.787974 0.438660 0.404960 0.192980 18.482548 -9.540457 4.892206 -35.450369 -0.909041 -34.165523 29.520716 -13.615467 21.561929 -0.721215 -6.799611 1.664362 0.248980 -0.146840 0.000140 -5.333405 -0.311727 -9.167070 12.641367 -5.559890 27.888305 -18.965069 0.968006 11.681139 3.519956 -2.354332 -13.530393 -10.316087 -11.430220 41.350951 10.062030 -17.102310 -18.745310 -35.905233 -29.752305 6.827550 -26.626021 -33.554896 0.946080 104.165107 -65.149967 -79.490821 -3.384033 1.487741 0.307500 -0.279130 0.183090 0.108050 27.775859 30.502931 13.629633 28.536275 9.606770 -5.231817 -12.787587 24.608160 -2.547126 2.287008 -1.383137 0.054770 0.187400 -0.109460 0.006590 
-0.361020 16.085220 -2.691300 2.839409 47.919094 -3.790624 -15.223482 12.119741 2.328476 26.713892 -2.293645 -14.032704 -6.650664 11.302972 31.433240 0.230411 7.143709 1.811679 0.402590 0.365350 0.160260 18.407821 -9.432680 4.852740 -33.149929 -0.198356 -34.568048 31.476952 -14.554734 22.764190 -0.773481 -6.989151 1.630645 0.234400 -0.106140 -0.005350 -5.078415 -0.648244 -9.181606 10.887317 -4.819453 27.222601 -17.151170 1.530738 12.239100 2.819994 -1.548073 -14.214841 -8.486339 -12.640078 39.150941 10.620010 -17.560170 -17.791810 -33.853212 -31.409826 6.599064 -25.764097 -34.979126 1.776204 106.887486 -62.011953 -79.592521 -3.446802 1.752077 0.280430 -0.247440 0.146840 0.110900 27.170878 31.070588 14.879838 29.201782 7.472144 -3.061960 -12.358484 17.044069 -1.607829 2.385481 -1.390869 0.037950 0.193160 -0.093670 0.013080 
-0.479380 16.116350 -2.436980 1.278763 47.428129 -5.340149 -15.295567 12.402726 2.320120 28.259155 -2.270649 -12.690082 -5.028917 10.848463 31.040734 0.231042 7.085861 1.842906 0.371950 0.330280 0.148140 18.276295 -9.480856 4.696527 -30.088576 0.391750 -33.808040 32.038458 -15.007402 23.644920 -0.796403 -6.994519 1.653644 0.214130 -0.088360 -0.008430 -4.747718 -1.029481 -9.128933 7.938159 -3.735365 26.670624 -14.881333 2.155448 12.917066 1.897875 -0.379654 -15.101244 -6.302469 -13.293553 38.260819 10.650070 -17.408510 -16.462950 -31.353419 -33.657542 6.321321 -24.077648 -35.940612 1.522962 106.695264 -58.528361 -75.195882 -3.460163 1.872382 0.265460 -0.224500 0.128890 0.105940 26.577558 32.009540 16.389995 31.011229 5.001249 -1.482461 -12.326984 10.464379 -0.822557 2.477161 -1.405116 0.027760 0.188500 -0.085500 0.009030 
-0.588760 16.142830 -2.181530 0.107971 46.908237 -6.667272 -15.359337 12.668730 2.282070 29.072334 -2.504044 -10.995700 -3.715053 10.547748 31.176101 0.261885 7.097299 1.854720 0.356000 0.313180 0.148610 18.158417 -9.545497 4.536527 -27.288040 0.637318 -32.745816 32.540110 -15.520864 24.376494 -0.833232 -7.031198 1.660850 0.199060 -0.084030 -0.002510 -4.422690 -1.381203 -9.030324 4.817826 -2.706830 25.467952 -12.881027 2.594258 13.711975 0.907504 1.290576 -15.814375 -3.287016 -13.667852 37.600433 10.513970 -16.741270 -14.835770 -27.929160 -36.172218 5.865495 -21.603209 -36.924526 0.867750 104.954281 -54.490653 -68.260422 -3.467305 1.991079 0.246810 -0.202770 0.121110 0.104540 25.094907 32.685043 17.744251 34.026632 2.465102 -0.341617 -11.713188 5.671491 -0.121048 2.538888 -1.431539 0.030340 0.166640 -0.090400 0.003440 
-0.707000 16.194760 -1.940900 -0.974504 46.096639 -8.409148 -15.438723 12.976163 2.292682 29.349484 -2.919761 -9.184265 -2.958408 10.587034 32.240957 0.285750 7.304022 1.792022 0.353100 0.303750 0.177180 18.013612 -9.657898 4.264883 -23.846319 0.993614 -31.038948 31.882799 -15.689779 25.287419 -0.846146 -6.945830 1.704570 0.200470 -0.088390 0.007940 -3.988286 -1.760669 -8.836090 0.806490 -1.695754 24.745805 -10.362292 2.846670 14.640539 -0.102634 3.685453 -16.233702 1.187668 -13.998815 36.762696 10.163550 -15.221680 -14.036750 -24.485633 -38.736172 4.990681 -17.344764 -37.354605 -0.427282 103.323101 -50.391310 -61.362268 -3.506418 2.103319 0.253260 -0.178730 0.121510 0.088900 23.572428 32.923450 18.891075 36.004711 0.316934 0.154508 -11.395254 3.419790 0.236875 2.537709 -1.450028 0.017470 0.153550 -0.089510 -0.025790 
-0.845290 16.271340 -1.700960 -1.155860 44.990058 -9.926223 -15.527796 13.305900 2.356104 28.950685 -3.414528 -6.955210 -3.165012 11.163064 34.145317 0.365517 7.717113 1.661287 0.359820 0.313210 0.217370 17.861171 -9.782488 3.908421 -20.332777 1.286268 -28.615806 29.994314 -15.382718 26.213760 -0.833754 -6.726363 1.792290 0.206510 -0.105040 0.020160 -3.459556 -2.217194 -8.548507 -4.436316 -0.258149 24.097875 -7.387879 3.434594 15.685803 -1.214996 6.140572 -16.652034 5.796580 -13.863441 36.265886 10.113550 -13.078560 -13.803700 -20.979068 -40.897614 3.784197 -12.311408 -37.707017 -2.254619 99.954452 -46.783094 -53.502449 -3.547634 2.202585 0.268420 -0.163530 0.139760 0.070470 22.198113 33.051042 20.085502 37.534418 -1.791776 0.405805 -11.281067 1.724401 0.509087 2.530505 -1.462060 0.011460 0.139940 -0.095310 -0.056530 
-0.971690 16.343460 -1.473460 -0.929827 43.341606 -10.985932 -15.598254 13.533535 2.497729 27.917877 -4.165282 -5.099501 -4.411919 12.607537 38.001815 0.556136 8.519112 1.413611 0.350380 0.306590 0.237140 17.762305 -9.862909 3.535397 -16.847816 1.556813 -26.388028 27.261408 -14.832467 27.404209 -0.795795 -6.459637 1.901225 0.197630 -0.105450 0.040850 -3.012065 -2.657738 -8.261801 -9.123913 0.992851 22.820359 -4.698777 3.916594 16.280199 -2.158898 7.878183 -16.920501 9.186332 -13.296620 35.683278 9.923610 -11.055070 -13.131820 -17.738516 -41.688843 2.633235 -7.484470 -37.854849 -4.205724 94.833810 -43.821945 -45.653400 -3.604000 2.316086 0.267310 -0.139690 0.150080 0.057160 20.772750 32.611167 20.916349 38.611596 -3.834552 0.409604 -11.328356 0.108553 0.750395 2.541035 -1.475366 0.012580 0.120190 -0.095340 -0.072720 
